<?xml version="1.0" encoding="utf-8"?>
<!-- Generator: Adobe Illustrator 22.1.0, SVG Export Plug-In . SVG Version: 6.00 Build 0)  -->
<svg version="1.1" id="Layer_1" xmlns="http://www.w3.org/2000/svg" xmlns:xlink="http://www.w3.org/1999/xlink" x="0px" y="0px"
	 viewBox="0 0 1024 1024" style="enable-background:new 0 0 1024 1024;" xml:space="preserve">
<style type="text/css">
	.st0{fill:#1A1A1A;}
	.st1{fill:#FFFFFF;}
	.st2{fill:#075388;}
	.st3{font-family:'NotoSerif-Bold';}
	.st4{font-size:237.1942px;}
</style>
<path class="st0" d="M1024,126v772c0,69.6-56.4,126-126,126H126C56.4,1024,0,967.6,0,898V126C0,56.4,56.4,0,126,0h772
	C967.6,0,1024,56.4,1024,126z"/>
<g>
	<path class="st1" d="M800.7,215.5v282.3c0,26.5-14.2,51-37,64.2l-121.3,70.1l-87.9,50.7l-35.4,20.5c-23,13.2-51.3,13.2-74.2,0
		l-35.5-20.5l-87.5-50.6L200.3,562c-22.8-13.2-37-37.7-37-64.2V215.5c0-26.6,14.2-51,37-64.2L444.9,10.1c23-13.2,51.3-13.2,74.2,0
		l244.6,141.2C786.5,164.5,800.7,188.9,800.7,215.5z"/>
	<polygon class="st1" points="507.7,139.1 564.5,148.5 522.4,187.9 531,244.9 480.5,217 429,242.8 439.9,186.2 399.5,145.1 
		456.7,138 483.2,86.9 	"/>
	<g>
		<path class="st1" d="M502.3,322.6v34h23.8c3.9,0,7.7,0.6,11.1,1.5c3.3,0.8,6.4,2.8,9.1,5.6c2.6,2.9,4.6,7.1,6.1,12.5
			c1.3,5.3,2.1,12.7,2.1,21.7v123H409.4V398c0-9.1,0.8-16.4,2.4-21.7c1.7-5.4,3.6-9.6,6.1-12.5c2.6-2.8,5.6-4.7,8.9-5.6
			c3.5-1,7.2-1.5,11.1-1.5h24v-34H270.1v34h23.4c3.8,0,7.2,0.6,10.7,1.5c3.5,0.8,6.4,2.6,9.1,5.3c2.6,2.8,4.9,6.5,6.3,11.7
			c1.5,5.2,2.4,12,2.4,20.5v236.6l87.5,50.6V559.9h145.1v122.8l87.9-50.7V398c0-9.1,0.7-16.4,2.2-21.7c1.3-5.4,3.5-9.6,6.1-12.5
			c2.6-2.8,5.6-4.7,9.1-5.6c3.5-1,7.1-1.5,10.9-1.5h23.3v-34H502.3z"/>
	</g>
</g>
<g>
	<path class="st2" d="M830.7,215.5v282.3c0,26.5-14.2,51-37,64.2l-121.3,70.1l-87.9,50.7l-35.4,20.5c-23,13.2-51.3,13.2-74.2,0
		l-35.5-20.5l-87.5-50.6L230.3,562c-22.8-13.2-37-37.7-37-64.2V215.5c0-26.6,14.2-51,37-64.2L474.9,10.1c23-13.2,51.3-13.2,74.2,0
		l244.6,141.2C816.5,164.5,830.7,188.9,830.7,215.5z"/>
	<polygon class="st1" points="537.7,139.1 594.5,148.5 552.4,187.9 561,244.9 510.5,217 459,242.8 469.9,186.2 429.5,145.1 
		486.7,138 513.2,86.9 	"/>
	<g>
		<path class="st1" d="M532.3,322.6v34h23.8c3.9,0,7.7,0.6,11.1,1.5c3.3,0.8,6.4,2.8,9.1,5.6c2.6,2.9,4.6,7.1,6.1,12.5
			c1.3,5.3,2.1,12.7,2.1,21.7v123H439.4V398c0-9.1,0.8-16.4,2.4-21.7c1.7-5.4,3.6-9.6,6.1-12.5c2.6-2.8,5.6-4.7,8.9-5.6
			c3.5-1,7.2-1.5,11.1-1.5h24v-34H300.1v34h23.4c3.8,0,7.2,0.6,10.7,1.5c3.5,0.8,6.4,2.6,9.1,5.3c2.6,2.8,4.9,6.5,6.3,11.7
			c1.5,5.2,2.4,12,2.4,20.5v236.6l87.5,50.6V559.9h145.1v122.8l87.9-50.7V398c0-9.1,0.7-16.4,2.2-21.7c1.3-5.4,3.5-9.6,6.1-12.5
			c2.6-2.8,5.6-4.7,9.1-5.6c3.5-1,7.1-1.5,10.9-1.5h23.3v-34H532.3z"/>
	</g>
</g>
<g>
	<text transform="matrix(1 0 0 1 64.8303 872.564)" class="st0 st3 st4">Hotello</text>
	<text transform="matrix(1 0 0 1 75.8303 882.564)" class="st1 st3 st4">Hotello</text>
</g>
</svg>
