<?xml version="1.0" encoding="utf-8"?>
<!-- Generator: Adobe Illustrator 22.1.0, SVG Export Plug-In . SVG Version: 6.00 Build 0)  -->
<svg version="1.1" id="Layer_1" xmlns="http://www.w3.org/2000/svg" xmlns:xlink="http://www.w3.org/1999/xlink" x="0px" y="0px"
	 viewBox="0 0 1024 1024" style="enable-background:new 0 0 1024 1024;" xml:space="preserve">
<style type="text/css">
	.st0{fill:#075388;stroke:#000000;stroke-width:15;stroke-miterlimit:10;}
	.st1{fill:#075388;}
	.st2{fill:#FFFFFF;}
	.st3{fill:#1A1A1A;}
	.st4{font-family:'NotoSerif-Bold';}
	.st5{font-size:234.6462px;}
</style>
<path class="st0" d="M898,1024H137c-69.6,0-126-56.4-126-126V137C11,67.4,67.4,11,137,11h761c69.6,0,126,56.4,126,126v761
	C1024,967.6,967.6,1024,898,1024z"/>
<g>
	<path class="st1" d="M832.8,243v279.3c0,26.2-14.1,50.4-36.6,63.5l-120,69.3l-86.9,50.1l-35,20.3c-22.7,13.1-50.7,13.1-73.4,0
		l-35.1-20.3l-86.5-50l-120.3-69.4c-22.6-13.1-36.6-37.3-36.6-63.5V243c0-26.3,14.1-50.4,36.6-63.5L480.8,39.8
		c22.7-13.1,50.7-13.1,73.4,0l241.9,139.7C818.7,192.6,832.8,216.7,832.8,243z"/>
	<polygon class="st2" points="542.9,167.4 599.1,176.7 557.5,215.7 566,272.1 516,244.5 465,270 475.8,214 435.8,173.3 492.4,166.3 
		518.7,115.7 	"/>
	<g>
		<path class="st2" d="M537.5,348.9v33.6h23.6c3.9,0,7.6,0.6,11,1.5c3.3,0.8,6.3,2.8,9,5.5c2.6,2.9,4.5,7,6.1,12.4
			c1.2,5.2,2.1,12.5,2.1,21.5v121.7H445.7V423.5c0-9,0.8-16.3,2.3-21.5c1.7-5.4,3.6-9.5,6.1-12.4c2.6-2.8,5.5-4.7,8.8-5.5
			c3.4-1,7.2-1.5,11-1.5h23.7v-33.6H307.9v33.6H331c3.7,0,7.2,0.6,10.6,1.5c3.4,0.8,6.3,2.6,9,5.2c2.6,2.8,4.8,6.5,6.2,11.6
			c1.5,5.1,2.3,11.8,2.3,20.3v234.1l86.5,50V583.7h143.6v121.5l86.9-50.1V423.5c0-9,0.7-16.3,2.2-21.5c1.2-5.4,3.4-9.5,6.1-12.4
			c2.6-2.8,5.5-4.7,9-5.5c3.4-1,7-1.5,10.7-1.5h23v-33.6H537.5z"/>
	</g>
</g>
<g>
	<text transform="matrix(1 0 0 1 88.4883 874.1904)" class="st3 st4 st5">Hotello</text>
	<text transform="matrix(1 0 0 1 99.3701 884.083)" class="st2 st4 st5">Hotello</text>
</g>
</svg>
